<svg width="800" height="600" xmlns="http://www.w3.org/2000/svg">

 <g>
  <title>Layer 1</title>
  <ellipse ry="33.5" rx="34" id="svg_21" cy="360.7" cx="140" stroke="null" fill="#ffffff"/>
  <ellipse ry="42.5" rx="44" id="svg_19" cy="118.7" cx="145" stroke="null" fill="#ffffff"/>
  <ellipse ry="43" rx="44" id="svg_20" cy="122.2" cx="483" stroke="null" fill="#ffffff"/>
  <rect id="svg_22" height="307" width="413" y="88.2" x="108" stroke="null" fill="#ffffff"/>
  <g id="svg_18">
   <g stroke="null">
    <path stroke="null" fill="#2C3E50" d="m497.40353,88.68421c12.73684,0 23.1579,10.42105 23.1579,23.1579l0,254.73685c0,12.73684 -10.42105,23.1579 -23.1579,23.1579l-362.80703,0c-12.73684,0 -23.1579,-10.42105 -23.1579,-23.1579l0,-254.73685c0,-12.73684 10.42105,-23.1579 23.1579,-23.1579l362.80703,0m0,-15.4386l-362.80703,0c-21.22807,0 -38.59649,17.36842 -38.59649,38.59649l0,254.73685c0,21.22807 17.36842,38.59649 38.59649,38.59649l362.80703,0c21.22807,0 38.59649,-17.36842 38.59649,-38.59649l0,-254.73685c0,-21.22807 -17.36842,-38.59649 -38.59649,-38.59649l0,0z"/>
    <path stroke="null" fill="#3B97D3" d="m499.33335,162.01755l-364.73685,0c-2.31579,0 -3.85965,-1.54386 -3.85965,-3.85965s1.54386,-3.85965 3.85965,-3.85965l364.73685,0c2.31579,0 3.85965,1.54386 3.85965,3.85965s-1.54386,3.85965 -3.85965,3.85965z"/>
    <circle stroke="null" r="11.57895" fill="#3B97D3" cy="122.64913" cx="151.96492"/>
    <circle stroke="null" r="11.57895" fill="#3B97D3" cy="122.64913" cx="186.70176"/>
    <circle stroke="null" r="11.57895" fill="#3B97D3" cy="122.64913" cx="221.43861"/>
   </g>
   <ellipse stroke="null" ry="95" rx="94" id="svg_16" cy="339.2" cx="515" fill="#ffffff"/>
   <path fill="#3B97D3" stroke="null" d="m513,454.50049c60.92993,0 110.5,-50.01866 110.5,-111.5s-49.57006,-111.5 -110.5,-111.5s-110.5,50.01866 -110.5,111.5s49.57006,111.5 110.5,111.5zm-86.10191,-99.59608l42.76547,0c0.85333,23.34516 4.19743,45.08489 9.64614,62.1678c0.82423,2.58474 1.76092,5.24407 2.81637,7.89706c-29.1893,-11.23174 -50.88269,-37.89968 -55.22798,-70.06485zm86.10191,-99.49609c1.92372,1.06024 7.30008,7.01458 12.23915,24.14273c4.13765,14.34898 6.72516,32.32548 7.48569,51.54554l-39.45204,0c0.76052,-19.22006 3.34882,-37.19735 7.48647,-51.54633c4.93986,-17.12735 10.31622,-23.08169 12.24073,-24.14193zm19.72563,99.49609c-0.76052,19.21927 -3.34882,37.19656 -7.48569,51.54554c-4.93907,17.12815 -10.31543,23.08248 -12.23915,24.14273c-1.92451,-1.06024 -7.30086,-7.01458 -12.23994,-24.14193c-4.13765,-14.34898 -6.72595,-32.32627 -7.48647,-51.54633l39.45125,0zm11.14831,70.06485c1.05545,-2.65299 1.99215,-5.31232 2.81637,-7.89706c5.44793,-17.08291 8.79281,-38.82263 9.64535,-62.1678l42.76625,0c-4.34607,32.16517 -26.03946,58.83391 -55.22798,70.06485zm55.22798,-93.87268l-42.76625,0c-0.85333,-23.34516 -4.19743,-45.08489 -9.64535,-62.1678c-0.82423,-2.58474 -1.76092,-5.24486 -2.81637,-7.89706c29.18852,11.23095 50.88191,37.89968 55.22798,70.06485zm-116.97585,-70.06485c-1.05545,2.65299 -1.99215,5.31232 -2.81637,7.89706c-5.44793,17.08291 -8.79281,38.82184 -9.64614,62.1678l-42.76547,0c4.34528,-32.16517 26.03868,-58.83311 55.22798,-70.06485z"/>
   <path stroke="null" fill="#3B97D3" d="m493.16537,199.00877l-355.32635,0c-2.25604,0 -3.76007,-1.20351 -3.76007,-3.00877s1.50403,-3.00877 3.76007,-3.00877l355.32635,0c2.25604,0 3.76007,1.20351 3.76007,3.00877s-1.50403,3.00877 -3.76007,3.00877z"/>
  </g>
 </g>
</svg>